<svg width="97" height="13" viewBox="0 0 97 13" fill="none" xmlns="http://www.w3.org/2000/svg">
<path d="M9.968 12H7.648L7.008 10.032H3.184L2.56 12H0.24L3.888 1.568C4.048 1.20533 4.224 0.954666 4.416 0.815999C4.61867 0.677333 4.864 0.608 5.152 0.608C5.44 0.608 5.66933 0.672 5.84 0.799999C6.02133 0.927999 6.18133 1.184 6.32 1.568L9.968 12ZM6.496 8.16L5.152 3.648L3.744 8.16H6.496ZM19.8351 12H17.2591L15.0351 7.776H13.4351V12H11.2111V3.056C11.2111 2.20267 11.4085 1.584 11.8031 1.2C12.1978 0.805333 12.8591 0.608 13.7871 0.608H15.6751C16.8058 0.608 17.7018 0.954666 18.3631 1.648C19.0351 2.33067 19.3711 3.2 19.3711 4.256C19.3711 5.024 19.1685 5.69067 18.7631 6.256C18.3685 6.81067 17.8778 7.19467 17.2911 7.408L19.8351 12ZM15.5311 5.92C16.0005 5.92 16.3845 5.76 16.6831 5.44C16.9925 5.10933 17.1471 4.704 17.1471 4.224C17.1471 3.73333 16.9978 3.33867 16.6991 3.04C16.4111 2.74133 16.0218 2.592 15.5311 2.592H14.4271C13.7658 2.592 13.4351 2.928 13.4351 3.6V5.92H15.5311ZM28.7679 2.592H25.7119V12H23.4879V2.592H20.4479V0.608H28.7679V2.592ZM38.5325 5.776V6.64C38.5325 8.54933 38.1698 9.936 37.4445 10.8C36.7298 11.664 35.5778 12.096 33.9885 12.096C32.3992 12.096 31.2472 11.664 30.5325 10.8C29.8285 9.936 29.4765 8.53333 29.4765 6.592V5.76C29.4765 3.98933 29.8338 2.672 30.5485 1.808C31.2738 0.943999 32.4152 0.511999 33.9725 0.511999C35.5405 0.511999 36.6925 0.949333 37.4285 1.824C38.1645 2.69867 38.5325 4.016 38.5325 5.776ZM36.3085 6.592V6C36.3085 4.976 36.1805 4.16 35.9245 3.552C35.6258 2.848 34.9858 2.496 34.0045 2.496C33.0125 2.496 32.3672 2.848 32.0685 3.552C31.8232 4.128 31.7005 4.944 31.7005 6V6.592C31.7005 7.968 31.8925 8.896 32.2765 9.376C32.4258 9.57867 32.6445 9.75467 32.9325 9.904C33.2312 10.0427 33.5832 10.112 33.9885 10.112C34.4045 10.112 34.7565 10.0427 35.0445 9.904C35.3325 9.76533 35.5565 9.59467 35.7165 9.392C35.8765 9.18933 35.9992 8.92267 36.0845 8.592C36.2338 8.06933 36.3085 7.40267 36.3085 6.592ZM39.4534 6.64V5.232C39.4534 3.74933 39.8427 2.592 40.6214 1.76C41.4 0.927999 42.4774 0.511999 43.8534 0.511999C45.2294 0.511999 46.3334 0.927999 47.1654 1.76C47.752 2.34667 48.0454 3.22667 48.0454 4.4H45.9654C45.9654 3.13067 45.288 2.496 43.9334 2.496C43.528 2.496 43.1814 2.576 42.8934 2.736C42.616 2.88533 42.408 3.06133 42.2694 3.264C42.1307 3.46667 42.024 3.76533 41.9494 4.16C41.8747 4.55467 41.832 4.88533 41.8214 5.152C41.8107 5.41867 41.8054 5.776 41.8054 6.224C41.8054 6.672 41.8054 6.976 41.8054 7.136C41.816 7.28533 41.832 7.536 41.8534 7.888C41.8854 8.22933 41.928 8.47467 41.9814 8.624C42.0454 8.77333 42.1307 8.96533 42.2374 9.2C42.3547 9.43467 42.4987 9.6 42.6694 9.696C43.1067 9.97333 43.6027 10.112 44.1574 10.112C45.0854 10.112 45.7414 9.71733 46.1254 8.928V8.16H44.7494V6.304H48.0294V9.744C47.6987 10.5227 47.176 11.1093 46.4614 11.504C45.7467 11.8987 44.936 12.096 44.0294 12.096C42.4187 12.096 41.2507 11.648 40.5254 10.752C39.8107 9.84533 39.4534 8.47467 39.4534 6.64ZM57.5289 12H53.4969C52.2169 12 51.3155 11.7813 50.7929 11.344C50.2809 10.896 50.0249 10.112 50.0249 8.992V0.608H57.5289V2.592H52.2489V5.264H55.9449L55.7849 7.248H52.2489V8.832C52.2489 9.28 52.3502 9.58933 52.5529 9.76C52.7555 9.93067 53.1235 10.016 53.6569 10.016H57.5289V12ZM66.8004 2.592H63.7444V12H61.5204V2.592H58.4804V0.608H66.8004V2.592ZM76.677 12H74.453V7.392H70.277V12H68.053V0.608H70.277V5.424H74.453V0.608H76.677V12ZM86.3501 12H82.3181C81.0381 12 80.1368 11.7813 79.6141 11.344C79.1021 10.896 78.8461 10.112 78.8461 8.992V0.608H86.3501V2.592H81.0701V5.264H84.7661L84.6061 7.248H81.0701V8.832C81.0701 9.28 81.1715 9.58933 81.3741 9.76C81.5768 9.93067 81.9448 10.016 82.4781 10.016H86.3501V12ZM96.8376 12H94.2616L92.0376 7.776H90.4376V12H88.2136V3.056C88.2136 2.20267 88.411 1.584 88.8056 1.2C89.2003 0.805333 89.8616 0.608 90.7896 0.608H92.6776C93.8083 0.608 94.7043 0.954666 95.3656 1.648C96.0376 2.33067 96.3736 3.2 96.3736 4.256C96.3736 5.024 96.171 5.69067 95.7656 6.256C95.371 6.81067 94.8803 7.19467 94.2936 7.408L96.8376 12ZM92.5336 5.92C93.003 5.92 93.387 5.76 93.6856 5.44C93.995 5.10933 94.1496 4.704 94.1496 4.224C94.1496 3.73333 94.0003 3.33867 93.7016 3.04C93.4136 2.74133 93.0243 2.592 92.5336 2.592H91.4296C90.7683 2.592 90.4376 2.928 90.4376 3.6V5.92H92.5336Z" fill="#1E1E1E"/>
</svg>
